<svg xmlns="http://www.w3.org/2000/svg" viewBox="0 0 800 600">
  <g>
    <rect x="0" y="0" fill="#006837" width="800" height="600"/>
    <rect x="0" y="0" fill="none" stroke="#FFFFFF" stroke-width="4" width="800" height="600"/>
  </g>
  <rect x="20" y="20" fill="none" stroke="#FFFFFF" stroke-width="4" width="760" height="560"/>
  <line stroke="#FFFFFF" stroke-width="4" x1="20" y1="100" x2="780" y2="100"/>
  <line stroke="#FFFFFF" stroke-width="4" x1="20" y1="180" x2="780" y2="180"/>
  <line stroke="#FFFFFF" stroke-width="4" x1="20" y1="260" x2="780" y2="260"/>
  <line stroke="#FFFFFF" display="block" stroke-width="4" x1="164" y1="20" x2="164" y2="100"/>
  <line stroke="#FFFFFF" display="block" stroke-width="4" x1="164" y1="100" x2="164" y2="180"/>
  <line stroke="#FFFFFF" display="block" stroke-width="4" x1="164" y1="180" x2="164" y2="260"/>
  <rect x="24" y="24" fill="none" data-index="1" display="none" stroke="#FF0000" stroke-width="4" width="136" height="72"/>
  <rect x="168" y="24" fill="none" data-index="2" display="none" stroke="#FF0000" stroke-width="4" width="608" height="72"/>
  <rect x="24" y="104" fill="none" data-index="3" display="none" stroke="#FF0000" stroke-width="4" width="136" height="72"/>
  <rect x="168" y="104" fill="none" data-index="4" display="none" stroke="#FF0000" stroke-width="4" width="608" height="72"/>
  <rect x="24" y="184" fill="none" data-index="5" display="none" stroke="#FF0000" stroke-width="4" width="136" height="72"/>
  <rect x="168" y="184" fill="none" data-index="6" display="none" stroke="#FF0000" stroke-width="4" width="608" height="72"/>
  <rect x="24" y="264" fill="none" data-index="7" display="none" stroke="#FF0000" stroke-width="4" width="752" height="312"/>
  <g transform="translate(32 72)">
    <text class="textfield" display="block" data-index="1" data-label="[項目 1]" data-max-length="10" data-wrap-length="3" x="0" y="0" font-size="40" fill="#FFFFFF" font-family="sans-serif" font-weight="bold" data-autofill="field1">
      <tspan class="field1" x="0" y="0"></tspan>
    </text>
  </g>
  <g transform="translate(176 72)">
    <text class="textfield" data-index="2" data-label="[項目 1：内容]" data-max-length="50" data-wrap-length="12" x="0" y="0" font-size="40" fill="#FFFFFF" font-family="sans-serif" font-weight="bold" data-autofill="field2">
      <tspan class="field2" x="0" y="0"></tspan>
    </text>
  </g>
  <g transform="translate(32 152)">
    <text class="textfield" display="block" data-index="3" data-label="[項目 2]" data-max-length="10" data-wrap-length="3" x="0" y="0" font-size="40" fill="#FFFFFF" font-family="sans-serif" font-weight="bold" data-autofill="field3">
      <tspan class="field3" x="0" y="0"></tspan>
    </text>
  </g>
  <g transform="translate(176 152)">
    <text class="textfield" data-index="4" data-label="[項目 2：内容]" data-max-length="50" data-wrap-length="12" x="0" y="0" font-size="40" fill="#FFFFFF" font-family="sans-serif" font-weight="bold" data-autofill="field4">
      <tspan class="field4" x="0" y="0"></tspan>
    </text>
  </g>
  <g transform="translate(32 232)">
    <text class="textfield" display="block" data-index="5" data-label="[項目 3]" data-max-length="10" data-wrap-length="3" x="0" y="0" font-size="40" fill="#FFFFFF" font-family="sans-serif" font-weight="bold" data-autofill="field5">
      <tspan class="field5" x="0" y="0"></tspan>
    </text>
  </g>
  <g transform="translate(176 232)">
    <text class="textfield" data-index="6" data-label="[項目 3：内容]" data-max-length="50" data-wrap-length="12" x="0" y="0" font-size="40" fill="#FFFFFF" font-family="sans-serif" font-weight="bold" data-autofill="field6">
      <tspan class="field6" x="0" y="0"></tspan>
    </text>
  </g>
  <g transform="translate(32 326)">
    <text class="textfield" data-index="7" data-label="[項目 4：内容]" data-max-length="100" data-wrap-length="12" data-multiline="true" x="0" y="0" font-size="55" fill="#FFFFFF" font-family="sans-serif" font-weight="bold" data-autofill="field7">
      <tspan class="field7" x="0" y="0"></tspan>
    </text>
  </g>
</svg>
